{
  "accessors": [
    {
      "bufferView": 2,
      "componentType": 5126,
      "count": 472,
      "max": [
        -219.8000030517578,
        -138.0,
        8.5
      ],
      "min": [
        -260.20001220703125,
        -150.0,
        5.0
      ],
      "type": "VEC3"
    },
    {
      "bufferView": 2,
      "byteOffset": 5664,
      "componentType": 5126,
      "count": 472,
      "max": [
        1.0,
        0.5038710236549377,
        0.8773711919784546
      ],
      "min": [
        -1.0,
        -0.5038710236549377,
        -1.0
      ],
      "type": "VEC3"
    },
    {
      "bufferView": 1,
      "componentType": 5126,
      "count": 472,
      "max": [
        12.0,
        3.5
      ],
      "min": [
        -12.0,
        -39.700008392333984
      ],
      "type": "VEC2"
    },
    {
      "bufferView": 0,
      "componentType": 5125,
      "count": 1536,
      "type": "SCALAR"
    },
    {
      "bufferView": 2,
      "byteOffset": 11328,
      "componentType": 5126,
      "count": 1823,
      "max": [
        -219.79800415039063,
        -137.8000030517578,
        8.598800659179688
      ],
      "min": [
        -260.20098876953125,
        -150.1999969482422,
        -0.0002481341070961207
      ],
      "type": "VEC3"
    },
    {
      "bufferView": 2,
      "byteOffset": 33204,
      "componentType": 5126,
      "count": 1823,
      "max": [
        1.0,
        1.0,
        1.0
      ],
      "min": [
        -1.0,
        -1.0,
        -1.0
      ],
      "type": "VEC3"
    },
    {
      "bufferView": 1,
      "byteOffset": 3776,
      "componentType": 5126,
      "count": 1823,
      "max": [
        40.200008392333984,
        11.200010299682617
      ],
      "min": [
        -40.20000076293945,
        -2.4999959468841553
      ],
      "type": "VEC2"
    },
    {
      "bufferView": 0,
      "byteOffset": 6144,
      "componentType": 5125,
      "count": 3072,
      "type": "SCALAR"
    },
    {
      "bufferView": 2,
      "byteOffset": 55080,
      "componentType": 5126,
      "count": 4400,
      "max": [
        -219.8000030517578,
        -137.8000030517578,
        8.076189994812012
      ],
      "min": [
        -260.20001220703125,
        -150.1999969482422,
        -2.682207025372918e-07
      ],
      "type": "VEC3"
    },
    {
      "bufferView": 2,
      "byteOffset": 107880,
      "componentType": 5126,
      "count": 4400,
      "max": [
        1.0,
        1.0,
        1.0
      ],
      "min": [
        -1.0,
        -1.0,
        -1.0
      ],
      "type": "VEC3"
    },
    {
      "bufferView": 1,
      "byteOffset": 18360,
      "componentType": 5126,
      "count": 4400,
      "max": [
        40.20000076293945,
        24.5
      ],
      "min": [
        -40.200008392333984,
        -14.5
      ],
      "type": "VEC2"
    },
    {
      "bufferView": 0,
      "byteOffset": 18432,
      "componentType": 5125,
      "count": 18693,
      "type": "SCALAR"
    }
  ],
  "asset": {
    "extras": {
      "author": "diverserp (https://sketchfab.com/diverserp)",
      "license": "CC-BY-4.0 (http://creativecommons.org/licenses/by/4.0/)",
      "source": "https://sketchfab.com/3d-models/rorkes-drift-storehouse-0bba0080138f4740b45828df994260c5",
      "title": "Rorke's Drift Storehouse"
    },
    "generator": "Sketchfab-12.68.0",
    "version": "2.0"
  },
  "bufferViews": [
    {
      "buffer": 0,
      "byteLength": 93204,
      "name": "floatBufferViews",
      "target": 34963
    },
    {
      "buffer": 0,
      "byteLength": 53560,
      "byteOffset": 93204,
      "byteStride": 8,
      "name": "floatBufferViews",
      "target": 34962
    },
    {
      "buffer": 0,
      "byteLength": 160680,
      "byteOffset": 146764,
      "byteStride": 12,
      "name": "floatBufferViews",
      "target": 34962
    }
  ],
  "buffers": [
    {
      "byteLength": 307444,
      "uri": "scene.bin"
    }
  ],
  "materials": [
    {
      "doubleSided": true,
      "name": "plaster",
      "pbrMetallicRoughness": {
        "metallicFactor": 0.0,
        "roughnessFactor": 0.6
      }
    },
    {
      "doubleSided": true,
      "name": "white_wood_1",
      "pbrMetallicRoughness": {
        "metallicFactor": 0.0,
        "roughnessFactor": 0.6
      }
    },
    {
      "doubleSided": true,
      "name": "white_wood_2",
      "pbrMetallicRoughness": {
        "metallicFactor": 0.0,
        "roughnessFactor": 0.6
      }
    }
  ],
  "meshes": [
    {
      "name": "Object_0",
      "primitives": [
        {
          "attributes": {
            "NORMAL": 1,
            "POSITION": 0,
            "TEXCOORD_0": 2
          },
          "indices": 3,
          "material": 2,
          "mode": 4
        }
      ]
    },
    {
      "name": "Object_1",
      "primitives": [
        {
          "attributes": {
            "NORMAL": 5,
            "POSITION": 4,
            "TEXCOORD_0": 6
          },
          "indices": 7,
          "material": 0,
          "mode": 4
        }
      ]
    },
    {
      "name": "Object_2",
      "primitives": [
        {
          "attributes": {
            "NORMAL": 9,
            "POSITION": 8,
            "TEXCOORD_0": 10
          },
          "indices": 11,
          "material": 1,
          "mode": 4
        }
      ]
    }
  ],
  "nodes": [
    {
      "children": [
        1
      ],
      "matrix": [
        1.0,
        0.0,
        0.0,
        0.0,
        0.0,
        2.220446049250313e-16,
        -1.0,
        0.0,
        0.0,
        1.0,
        2.220446049250313e-16,
        0.0,
        0.0,
        0.0,
        0.0,
        1.0
      ],
      "name": "Sketchfab_model"
    },
    {
      "children": [
        2,
        3,
        4
      ],
      "name": "b7f58d80465d44e8bf2652763f108f7a.obj.cleaner.materialmerger.gles"
    },
    {
      "mesh": 0,
      "name": "Object_2"
    },
    {
      "mesh": 1,
      "name": "Object_3"
    },
    {
      "mesh": 2,
      "name": "Object_4"
    }
  ],
  "scene": 0,
  "scenes": [
    {
      "name": "Sketchfab_Scene",
      "nodes": [
        0
      ]
    }
  ]
}
